<svg xmlns="http://www.w3.org/2000/svg" viewBox="0 0 48 48">
  <defs>
    <linearGradient id="calcGrad" x1="0%" y1="0%" x2="0%" y2="100%">
      <stop offset="0%" style="stop-color:#444"/>
      <stop offset="100%" style="stop-color:#222"/>
    </linearGradient>
  </defs>
  <!-- Body -->
  <rect x="8" y="4" width="32" height="40" rx="4" fill="url(#calcGrad)"/>
  <!-- Screen -->
  <rect x="12" y="8" width="24" height="10" rx="2" fill="#9FD89F"/>
  <text x="33" y="16" font-family="monospace" font-size="8" fill="#2a2a2a" text-anchor="end">1234</text>
  <!-- Buttons -->
  <rect x="12" y="22" width="5" height="4" rx="1" fill="#FF6B6B"/>
  <rect x="19" y="22" width="5" height="4" rx="1" fill="#888"/>
  <rect x="26" y="22" width="5" height="4" rx="1" fill="#888"/>
  <rect x="33" y="22" width="5" height="4" rx="1" fill="#FFA94D"/>
  <rect x="12" y="28" width="5" height="4" rx="1" fill="#888"/>
  <rect x="19" y="28" width="5" height="4" rx="1" fill="#888"/>
  <rect x="26" y="28" width="5" height="4" rx="1" fill="#888"/>
  <rect x="33" y="28" width="5" height="4" rx="1" fill="#FFA94D"/>
  <rect x="12" y="34" width="5" height="4" rx="1" fill="#888"/>
  <rect x="19" y="34" width="5" height="4" rx="1" fill="#888"/>
  <rect x="26" y="34" width="5" height="4" rx="1" fill="#888"/>
  <rect x="33" y="34" width="5" height="4" rx="1" fill="#FFA94D"/>
  <rect x="12" y="40" width="12" height="4" rx="1" fill="#888"/>
  <rect x="26" y="40" width="5" height="4" rx="1" fill="#888"/>
  <rect x="33" y="40" width="5" height="4" rx="1" fill="#5BC0EB"/>
</svg>

